<?xml version="1.0" standalone="no"?>
<!DOCTYPE svg PUBLIC "-//W3C//DTD SVG 20010904//EN"
 "http://www.w3.org/TR/2001/REC-SVG-20010904/DTD/svg10.dtd">
<svg version="1.0" xmlns="http://www.w3.org/2000/svg"
 width="1147.000000pt" height="1147.000000pt" viewBox="0 0 1147.000000 1147.000000"
 preserveAspectRatio="xMidYMid meet">
<metadata>
Created by potrace 1.14, written by Peter Selinger 2001-2017
</metadata>
<g transform="translate(0.000000,1147.000000) scale(0.100000,-0.100000)"
fill="#000000" stroke="none">
<path d="M3562 9797 l-512 -512 0 -2573 c0 -1414 3 -2572 7 -2572 4 0 60 21
125 46 l118 46 38 -34 c115 -105 842 -833 842 -843 0 -7 -20 -63 -45 -126 -25
-63 -45 -117 -45 -121 0 -5 459 -8 1019 -8 l1019 0 54 109 c37 77 58 110 71
110 26 1 107 -84 106 -111 0 -19 -18 -32 -97 -71 -53 -26 -103 -47 -109 -47
-10 0 -13 -183 -13 -881 0 -650 3 -878 11 -873 6 4 28 25 48 48 58 66 144 152
135 136 -4 -8 -18 -26 -31 -40 -74 -80 -144 -175 -132 -177 8 -2 466 73 1019
165 l1005 168 3 2274 2 2275 -128 -128 -127 -127 -1106 0 c-608 0 -1109 4
-1115 9 -5 4 -83 38 -174 74 -91 36 -225 91 -297 121 -73 30 -133 51 -133 47
0 -5 20 -18 45 -30 76 -36 571 -241 581 -241 14 0 589 -580 604 -608 6 -13 10
-26 7 -28 -13 -13 -192 -94 -208 -94 -23 0 -24 -18 -4 -66 8 -20 12 -40 9 -45
-3 -5 1 -12 10 -15 8 -3 17 -13 20 -21 5 -12 4 -13 -7 -5 -19 16 -30 3 -14
-16 10 -13 9 -15 -5 -9 -16 5 -18 0 -18 -38 0 -49 4 -51 60 -35 20 6 38 6 43
1 5 -5 -20 -16 -61 -25 -60 -13 -147 -16 -561 -16 -595 0 -614 2 -698 86 -51
51 -67 79 -39 68 7 -3 19 -16 26 -29 13 -24 13 -24 106 63 l93 87 1 1543 0
1542 499 0 c275 0 506 3 515 6 15 6 16 -66 16 -770 l0 -776 1030 0 1030 0 0
1289 0 1289 -102 -40 c-57 -22 -116 -46 -132 -54 l-30 -14 -150 149 c-83 82
-281 278 -441 435 l-290 285 -1437 1 c-1227 0 -1438 2 -1438 14 0 15 -88 226
-99 238 -4 4 -237 -223 -519 -505z m2724 -1344 c14 -9 36 -32 49 -51 l24 -36
-101 -53 c-55 -30 -103 -51 -106 -48 -3 3 7 26 22 53 15 26 39 71 52 100 14
28 28 52 30 52 3 0 16 -7 30 -17z m125 -6587 c3 -246 3 -246 42 -246 38 0 33
-5 -15 -14 l-38 -7 0 237 c0 131 2 235 4 233 3 -2 6 -93 7 -203z m786 -132
c-3 -3 -12 -4 -19 -1 -8 3 -5 6 6 6 11 1 17 -2 13 -5z m-174 -31 c-7 -2 -19
-2 -25 0 -7 3 -2 5 12 5 14 0 19 -2 13 -5z m-66 -9 c-3 -3 -12 -4 -19 -1 -8 3
-5 6 6 6 11 1 17 -2 13 -5z m-60 -10 c-3 -3 -12 -4 -19 -1 -8 3 -5 6 6 6 11 1
17 -2 13 -5z m-112 -14 c-3 -5 -16 -10 -28 -10 -18 0 -19 2 -7 10 20 13 43 13
35 0z m52 4 c-3 -3 -12 -4 -19 -1 -8 3 -5 6 6 6 11 1 17 -2 13 -5z m-124 -21
c-7 -2 -19 -2 -25 0 -7 3 -2 5 12 5 14 0 19 -2 13 -5z m-103 -13 c0 -5 -12
-10 -27 -9 -25 0 -26 1 -8 9 27 12 35 12 35 0z m53 3 c-7 -2 -21 -2 -30 0 -10
3 -4 5 12 5 17 0 24 -2 18 -5z m-125 -20 c-10 -2 -26 -2 -35 0 -10 3 -2 5 17
5 19 0 27 -2 18 -5z"/>
</g>
</svg>
